# 
# 
mtllib table.mtl
v 1.415248 1.508083 0.938925
v -1.404925 1.505431 0.941809
v 0.710046 1.507472 0.924389
v 1.414613 1.508290 0.877895
v 0.004844 1.506860 0.909852
v -0.700349 1.506249 0.895312
v -1.405714 1.600161 0.942132
v 1.414447 1.602813 0.939247
v 0.709249 1.602201 0.924708
v -1.406344 1.600368 0.881090
v -0.701146 1.600979 0.895629
v 1.413818 1.603020 0.878218
v -1.405543 1.505638 0.880772
v 0.004137 1.554329 0.879495
v 0.004767 1.554122 0.940528
v 0.004051 1.601590 0.910169
v -1.455888 -0.000000 -0.955092
v -1.367856 0.000295 -0.954789
v -1.413127 0.526954 -0.956463
v -1.458398 1.619866 -0.958136
v -1.370368 1.620161 -0.957840
v -1.458722 1.620250 -0.863409
v -1.370690 1.620540 -0.863109
v -1.413450 0.527336 -0.861734
v -1.456210 0.000383 -0.860359
v -1.368181 0.000674 -0.860062
v -1.369274 0.527291 -0.908951
v -1.457305 0.526999 -0.909251
v 1.415248 1.508083 -0.938925
v -1.404925 1.505431 -0.941810
v 0.710046 1.507472 -0.924389
v 1.414613 1.508290 -0.877895
v 0.004844 1.506860 -0.909852
v -0.700349 1.506249 -0.895312
v -1.405714 1.600161 -0.942132
v 1.414447 1.602813 -0.939247
v 0.709249 1.602201 -0.924708
v -1.406344 1.600368 -0.881090
v -0.701146 1.600979 -0.895630
v 1.413818 1.603020 -0.878218
v -1.405543 1.505638 -0.880772
v 0.004137 1.554329 -0.879495
v 0.004767 1.554122 -0.940528
v 0.004051 1.601590 -0.910169
v 1.455888 0.000000 0.955092
v 1.367856 0.000295 0.954789
v 1.413127 0.526955 0.956463
v 1.458398 1.619866 0.958136
v 1.370368 1.620161 0.957840
v 1.458722 1.620250 0.863409
v 1.370690 1.620540 0.863109
v 1.413450 0.527336 0.861734
v 1.456210 0.000383 0.860359
v 1.368181 0.000674 0.860062
v 1.369274 0.527291 0.908951
v 1.457305 0.526999 0.909251
v -1.455888 0.000000 0.955092
v -1.367856 0.000295 0.954789
v -1.413127 0.526955 0.956463
v -1.458398 1.619866 0.958136
v -1.370368 1.620161 0.957840
v -1.458722 1.620250 0.863409
v -1.370690 1.620540 0.863109
v -1.413450 0.527336 0.861734
v -1.456210 0.000383 0.860359
v -1.368181 0.000674 0.860062
v -1.369274 0.527291 0.908951
v -1.457305 0.526999 0.909251
v 1.442883 1.508083 -0.895082
v 1.445768 1.505431 0.888553
v 1.428347 1.507472 -0.449073
v 1.381854 1.508290 -0.894680
v 1.413810 1.506860 -0.003064
v 1.399270 1.506249 0.442940
v 1.446090 1.600161 0.889052
v 1.443206 1.602813 -0.894575
v 1.428666 1.602201 -0.448569
v 1.385048 1.600368 0.889450
v 1.399588 1.600979 0.443444
v 1.382177 1.603020 -0.894177
v 1.384730 1.505638 0.888943
v 1.383453 1.554329 -0.002617
v 1.444487 1.554122 -0.003015
v 1.414127 1.601590 -0.002562
v -1.442883 1.508083 -0.895082
v -1.445768 1.505431 0.888553
v -1.428347 1.507472 -0.449073
v -1.381854 1.508290 -0.894680
v -1.413810 1.506860 -0.003064
v -1.399270 1.506249 0.442940
v -1.446090 1.600161 0.889052
v -1.443206 1.602813 -0.894575
v -1.428666 1.602201 -0.448569
v -1.385048 1.600368 0.889450
v -1.399588 1.600979 0.443444
v -1.382177 1.603020 -0.894177
v -1.384730 1.505638 0.888943
v -1.383453 1.554329 -0.002617
v -1.444487 1.554122 -0.003015
v -1.414127 1.601590 -0.002562
v 1.455888 -0.000000 -0.955092
v 1.367856 0.000295 -0.954789
v 1.413127 0.526954 -0.956463
v 1.458398 1.619866 -0.958136
v 1.370368 1.620161 -0.957840
v 1.458722 1.620250 -0.863409
v 1.370690 1.620540 -0.863109
v 1.413450 0.527336 -0.861734
v 1.456210 0.000383 -0.860359
v 1.368181 0.000674 -0.860062
v 1.369274 0.527291 -0.908951
v 1.457305 0.526999 -0.909251
v 1.500000 1.700000 1.000000
v -1.500000 1.700000 1.000000
v 1.500000 1.700000 -1.000000
v -1.500000 1.700000 -1.000000
v 1.500000 1.590000 1.000000
v -1.500000 1.590000 1.000000
v 1.500000 1.590000 -1.000000
v -1.500000 1.590000 -1.000000
vt 0.951842 0.011780
vt 0.951842 0.365551
vt 0.960967 0.100223
vt 0.988311 0.011780
vt 0.970061 0.188665
vt 0.979186 0.277108
vt 0.988311 0.365551
vt 0.439131 0.355327
vt 0.637745 0.372265
vt 0.439131 0.389203
vt 0.836360 0.355327
vt 0.836360 0.389203
vt 0.875423 0.302133
vt 0.875423 0.333323
vt 0.911893 0.302133
vt 0.911893 0.333323
vt 0.028416 0.454124
vt 0.028416 0.978709
vt 0.677330 0.978709
vt 0.677330 0.454124
vt 0.930285 0.456904
vt 0.930285 0.878559
vt 0.884048 0.878559
vt 0.751408 0.961449
vt 0.751408 0.462448
vt 0.706981 0.462448
vt 0.706981 0.961449
vt 0.884048 0.456904
vn 0.000937 -0.999994 -0.003412
vn 0.000937 -0.999994 -0.003404
vn -0.000937 0.999994 0.003400
vn -0.000937 0.999994 0.003397
vn -0.001023 0.003399 -0.999994
vn -0.001022 0.003353 -0.999994
vn 0.001026 -0.003390 0.999994
vn 0.001026 -0.003392 0.999994
vn 0.000937 -0.999994 -0.003408
vn 0.000937 -0.999994 -0.003400
vn -0.000937 0.999994 0.003412
vn -0.000937 0.999994 0.003408
vn -0.001022 0.003352 -0.999994
vn 0.001026 -0.003391 0.999994
vn 0.000937 -0.999994 -0.003405
vn 0.000937 -0.999994 -0.003401
vn 0.000937 -0.999994 -0.003416
vn -0.000937 0.999994 0.003405
vn 0.003454 -0.002881 -0.999990
vn 0.003369 -0.001392 -0.999993
vn -0.003413 0.001392 0.999993
vn -0.003375 0.002884 0.999990
vn 0.003286 -0.999986 0.004058
vn 0.003336 -0.999986 0.004012
vn 0.999991 0.002394 0.003416
vn 0.999994 0.001153 0.003399
vn -0.999991 -0.002394 -0.003394
vn -0.999994 -0.001153 -0.003417
vn -0.008726 -0.001893 -0.999960
vn 0.015335 -0.001860 -0.999881
vn 0.008787 0.001897 0.999960
vn -0.015316 0.001857 0.999881
vn 0.999916 0.001575 0.012833
vn 0.999982 0.001539 -0.005799
vn -0.999982 -0.001540 0.005807
vn -0.999917 -0.001574 -0.012823
vn 0.000937 -0.999994 0.003412
vn 0.000937 -0.999994 0.003404
vn -0.000937 0.999994 -0.003400
vn -0.000937 0.999994 -0.003397
vn -0.001023 0.003399 0.999994
vn -0.001022 0.003353 0.999994
vn 0.001026 -0.003390 -0.999994
vn 0.001026 -0.003392 -0.999994
vn 0.000937 -0.999994 0.003408
vn 0.000937 -0.999994 0.003400
vn -0.000937 0.999994 -0.003412
vn -0.000937 0.999994 -0.003408
vn -0.001022 0.003352 0.999994
vn 0.001026 -0.003391 -0.999994
vn 0.000937 -0.999994 0.003405
vn 0.000937 -0.999994 0.003401
vn 0.000937 -0.999994 0.003416
vn -0.000937 0.999994 -0.003405
vn -0.003454 -0.002881 0.999990
vn -0.003369 -0.001392 0.999993
vn 0.003413 0.001392 -0.999993
vn 0.003375 0.002884 -0.999990
vn -0.003286 -0.999986 -0.004058
vn -0.003336 -0.999986 -0.004011
vn -0.999991 0.002394 -0.003416
vn -0.999994 0.001153 -0.003399
vn 0.999991 -0.002394 0.003394
vn 0.999994 -0.001153 0.003417
vn 0.008727 -0.001893 0.999960
vn -0.015335 -0.001860 0.999881
vn -0.008788 0.001897 -0.999960
vn 0.015317 0.001857 -0.999881
vn -0.999916 0.001575 -0.012833
vn -0.999982 0.001539 0.005799
vn 0.999982 -0.001540 -0.005807
vn 0.999917 -0.001574 0.012823
vn 0.003454 -0.002881 0.999990
vn 0.003369 -0.001392 0.999993
vn -0.003413 0.001392 -0.999993
vn -0.003375 0.002884 -0.999990
vn 0.003286 -0.999986 -0.004058
vn 0.003336 -0.999986 -0.004011
vn 0.999991 0.002394 -0.003416
vn 0.999994 0.001153 -0.003399
vn -0.999991 -0.002394 0.003394
vn -0.999994 -0.001153 0.003417
vn -0.008727 -0.001893 0.999960
vn 0.015335 -0.001860 0.999881
vn 0.008788 0.001897 -0.999960
vn -0.015317 0.001857 -0.999881
vn 0.999916 0.001575 -0.012833
vn 0.999982 0.001539 0.005799
vn -0.999982 -0.001540 -0.005807
vn -0.999917 -0.001574 0.012823
vn -0.003412 -0.999993 -0.001481
vn -0.003404 -0.999993 -0.001482
vn 0.003400 0.999993 0.001481
vn 0.003397 0.999993 0.001481
vn -0.999993 0.003397 0.001618
vn -0.999993 0.003354 0.001615
vn 0.999993 -0.003390 -0.001622
vn -0.003408 -0.999993 -0.001481
vn -0.003400 -0.999993 -0.001481
vn 0.003412 0.999993 0.001481
vn 0.003408 0.999993 0.001481
vn -0.999993 0.003399 0.001618
vn -0.999993 0.003351 0.001615
vn 0.999993 -0.003392 -0.001622
vn 0.999993 -0.003389 -0.001622
vn -0.003405 -0.999993 -0.001482
vn -0.003401 -0.999993 -0.001481
vn -0.003404 -0.999993 -0.001481
vn -0.003416 -0.999993 -0.001481
vn 0.003408 0.999993 0.001482
vn 0.003405 0.999993 0.001482
vn 0.003412 -0.999993 -0.001481
vn 0.003404 -0.999993 -0.001482
vn -0.003400 0.999993 0.001481
vn -0.003397 0.999993 0.001481
vn 0.999993 0.003397 0.001618
vn 0.999993 0.003354 0.001615
vn -0.999993 -0.003390 -0.001622
vn 0.003408 -0.999993 -0.001481
vn 0.003400 -0.999993 -0.001481
vn -0.003412 0.999993 0.001481
vn -0.003408 0.999993 0.001481
vn 0.999993 0.003399 0.001618
vn 0.999993 0.003351 0.001615
vn -0.999993 -0.003392 -0.001622
vn -0.999993 -0.003389 -0.001622
vn 0.003405 -0.999993 -0.001482
vn 0.003401 -0.999993 -0.001481
vn 0.003404 -0.999993 -0.001481
vn 0.003416 -0.999993 -0.001481
vn -0.003408 0.999993 0.001482
vn -0.003405 0.999993 0.001482
vn -0.003454 -0.002881 -0.999990
vn -0.003369 -0.001392 -0.999993
vn 0.003413 0.001392 0.999993
vn 0.003375 0.002884 0.999990
vn -0.003286 -0.999986 0.004058
vn -0.003336 -0.999986 0.004012
vn -0.999991 0.002394 0.003416
vn -0.999994 0.001153 0.003399
vn 0.999991 -0.002394 -0.003394
vn 0.999994 -0.001153 -0.003417
vn 0.008726 -0.001893 -0.999960
vn -0.015335 -0.001860 -0.999881
vn -0.008787 0.001897 0.999960
vn 0.015316 0.001857 0.999881
vn -0.999916 0.001575 0.012833
vn -0.999982 0.001539 -0.005799
vn 0.999982 -0.001540 0.005807
vn 0.999917 -0.001574 -0.012823
vn 0.000000 -1.000000 0.000000
vn 0.000000 1.000000 0.000000
vn 1.000000 0.000000 0.000000
vn 0.000000 0.000000 -1.000000
vn 0.000000 0.000000 1.000000
vn -1.000000 0.000000 0.000000
usemtl table
s off
f 1/1/1 2/2/1 3/3/1
f 4/4/2 5/5/2 6/6/2
f 7/4/3 8/7/3 9/6/3
f 10/1/4 11/3/4 12/2/4
f 4/1/5 13/2/5 14/5/5
f 12/4/6 14/5/6 10/7/6
f 8/1/7 7/2/7 15/5/7
f 1/4/8 15/5/8 2/7/8
f 1/1/9 3/3/9 4/4/9
f 5/5/10 2/2/10 6/6/10
f 7/4/11 16/5/11 11/3/11
f 16/5/12 9/6/12 12/2/12
f 4/1/5 14/5/5 12/4/5
f 14/5/13 13/2/13 10/7/13
f 15/5/14 1/4/14 8/1/14
f 15/5/14 7/2/14 2/7/14
f 3/3/15 5/5/15 4/4/15
f 3/3/16 2/2/16 5/5/16
f 6/6/2 2/2/2 13/7/2
f 4/4/17 6/6/17 13/7/17
f 7/4/12 11/3/12 10/1/12
f 11/3/12 16/5/12 12/2/12
f 9/6/18 8/7/18 12/2/18
f 7/4/11 9/6/11 16/5/11
f 17/8/19 19/9/19 18/10/19
f 20/11/20 21/12/20 19/9/20
f 22/12/21 24/9/21 23/11/21
f 25/10/22 26/8/22 24/9/22
f 25/13/23 17/14/23 26/15/23
f 17/14/24 18/16/24 26/15/24
f 18/12/25 27/9/25 26/11/25
f 21/10/26 23/8/26 27/9/26
f 25/8/27 28/9/27 17/10/27
f 22/11/28 20/12/28 28/9/28
f 17/8/29 20/11/29 19/9/29
f 19/9/30 21/12/30 18/10/30
f 22/12/31 25/10/31 24/9/31
f 24/9/32 26/8/32 23/11/32
f 18/12/33 21/10/33 27/9/33
f 27/9/34 23/8/34 26/11/34
f 25/8/35 22/11/35 28/9/35
f 28/9/36 20/12/36 17/10/36
f 29/1/37 31/3/37 30/2/37
f 32/4/38 34/6/38 33/5/38
f 35/4/39 37/6/39 36/7/39
f 38/1/40 40/2/40 39/3/40
f 32/1/41 42/5/41 41/2/41
f 40/4/42 38/7/42 42/5/42
f 36/1/43 43/5/43 35/2/43
f 29/4/44 30/7/44 43/5/44
f 29/1/45 32/4/45 31/3/45
f 33/5/46 34/6/46 30/2/46
f 35/4/47 39/3/47 44/5/47
f 44/5/48 40/2/48 37/6/48
f 32/1/41 40/4/41 42/5/41
f 42/5/49 38/7/49 41/2/49
f 36/1/50 29/4/50 43/5/50
f 43/5/50 30/7/50 35/2/50
f 31/3/51 32/4/51 33/5/51
f 31/3/52 33/5/52 30/2/52
f 34/6/38 41/7/38 30/2/38
f 32/4/53 41/7/53 34/6/53
f 35/4/48 38/1/48 39/3/48
f 39/3/48 40/2/48 44/5/48
f 37/6/54 40/2/54 36/7/54
f 35/4/47 44/5/47 37/6/47
f 45/8/55 47/9/55 46/10/55
f 48/11/56 49/12/56 47/9/56
f 50/12/57 52/9/57 51/11/57
f 53/10/58 54/8/58 52/9/58
f 53/13/59 45/14/59 54/15/59
f 45/14/60 46/16/60 54/15/60
f 46/12/61 55/9/61 54/11/61
f 49/10/62 51/8/62 55/9/62
f 53/8/63 56/9/63 45/10/63
f 50/11/64 48/12/64 56/9/64
f 45/8/65 48/11/65 47/9/65
f 47/9/66 49/12/66 46/10/66
f 50/12/67 53/10/67 52/9/67
f 52/9/68 54/8/68 51/11/68
f 46/12/69 49/10/69 55/9/69
f 55/9/70 51/8/70 54/11/70
f 53/8/71 50/11/71 56/9/71
f 56/9/72 48/12/72 45/10/72
f 57/8/73 58/10/73 59/9/73
f 60/11/74 59/9/74 61/12/74
f 62/12/75 63/11/75 64/9/75
f 65/10/76 64/9/76 66/8/76
f 65/13/77 66/15/77 57/14/77
f 57/14/78 66/15/78 58/16/78
f 58/12/79 66/11/79 67/9/79
f 61/10/80 67/9/80 63/8/80
f 65/8/81 57/10/81 68/9/81
f 62/11/82 68/9/82 60/12/82
f 57/8/83 59/9/83 60/11/83
f 59/9/84 58/10/84 61/12/84
f 62/12/85 64/9/85 65/10/85
f 64/9/86 63/11/86 66/8/86
f 58/12/87 67/9/87 61/10/87
f 67/9/88 66/11/88 63/8/88
f 65/8/89 68/9/89 62/11/89
f 68/9/90 57/10/90 60/12/90
f 69/1/91 70/2/91 71/3/91
f 72/4/92 73/5/92 74/6/92
f 75/4/93 76/7/93 77/6/93
f 78/1/94 79/3/94 80/2/94
f 72/1/95 81/2/95 82/5/95
f 80/4/96 82/5/96 78/7/96
f 76/1/97 75/2/97 83/5/97
f 69/4/97 83/5/97 70/7/97
f 69/1/98 71/3/98 72/4/98
f 73/5/99 70/2/99 74/6/99
f 75/4/100 84/5/100 79/3/100
f 84/5/101 77/6/101 80/2/101
f 72/1/102 82/5/102 80/4/102
f 82/5/103 81/2/103 78/7/103
f 76/1/104 83/5/104 69/4/104
f 83/5/105 75/2/105 70/7/105
f 71/3/106 73/5/106 72/4/106
f 71/3/107 70/2/107 73/5/107
f 74/6/108 70/2/108 81/7/108
f 72/4/109 74/6/109 81/7/109
f 75/4/110 79/3/110 78/1/110
f 79/3/101 84/5/101 80/2/101
f 77/6/111 76/7/111 80/2/111
f 75/4/100 77/6/100 84/5/100
f 85/1/112 87/3/112 86/2/112
f 88/4/113 90/6/113 89/5/113
f 91/4/114 93/6/114 92/7/114
f 94/1/115 96/2/115 95/3/115
f 88/1/116 98/5/116 97/2/116
f 96/4/117 94/7/117 98/5/117
f 92/1/118 99/5/118 91/2/118
f 85/4/118 86/7/118 99/5/118
f 85/1/119 88/4/119 87/3/119
f 89/5/120 90/6/120 86/2/120
f 91/4/121 95/3/121 100/5/121
f 100/5/122 96/2/122 93/6/122
f 88/1/123 96/4/123 98/5/123
f 98/5/124 94/7/124 97/2/124
f 92/1/125 85/4/125 99/5/125
f 99/5/126 86/7/126 91/2/126
f 87/3/127 88/4/127 89/5/127
f 87/3/128 89/5/128 86/2/128
f 90/6/129 97/7/129 86/2/129
f 88/4/130 97/7/130 90/6/130
f 91/4/131 94/1/131 95/3/131
f 95/3/122 96/2/122 100/5/122
f 93/6/132 96/2/132 92/7/132
f 91/4/121 100/5/121 93/6/121
f 101/8/133 102/10/133 103/9/133
f 104/11/134 103/9/134 105/12/134
f 106/12/135 107/11/135 108/9/135
f 109/10/136 108/9/136 110/8/136
f 109/13/137 110/15/137 101/14/137
f 101/14/138 110/15/138 102/16/138
f 102/12/139 110/11/139 111/9/139
f 105/10/140 111/9/140 107/8/140
f 109/8/141 101/10/141 112/9/141
f 106/11/142 112/9/142 104/12/142
f 101/8/143 103/9/143 104/11/143
f 103/9/144 102/10/144 105/12/144
f 106/12/145 108/9/145 109/10/145
f 108/9/146 107/11/146 110/8/146
f 102/12/147 111/9/147 105/10/147
f 111/9/148 110/11/148 107/8/148
f 109/8/149 112/9/149 106/11/149
f 112/9/150 101/10/150 104/12/150
f 114/17/151 116/18/151 115/19/151
f 118/17/152 117/20/152 119/19/152
f 116/21/153 114/22/153 118/23/153
f 114/24/154 113/25/154 117/26/154
f 115/25/155 116/24/155 120/27/155
f 113/22/156 115/21/156 119/28/156
f 113/20/151 114/17/151 115/19/151
f 120/18/152 118/17/152 119/19/152
f 120/28/153 116/21/153 118/23/153
f 118/27/154 114/24/154 117/26/154
f 119/26/155 115/25/155 120/27/155
f 117/23/156 113/22/156 119/28/156
